<svg width="300" height="132" viewBox="0 0 300 132" fill="none" xmlns="http://www.w3.org/2000/svg" xmlns:xlink="http://www.w3.org/1999/xlink">
<path d="M277.05,0.979L22.951,0.979C10.275,0.979 0,11.254 0,23.929L0,108.071C0,120.746 10.275,131.022 22.951,131.022L277.05,131.022C289.724,131.022 300,120.746 300,108.071L300,23.929C300,11.254 289.724,0.979 277.05,0.979Z" fill="#FFFFFF"/>
<path d="M66.669,97.092C66.631,97.053 66.593,97.015 66.556,96.977C65.837,96.057 61.372,90.383 56.794,83.138C55.432,80.838 54.524,78.998 54.713,78.538C55.167,77.312 63.112,76.66 65.534,77.772C66.291,78.117 66.253,78.538 66.253,78.807C66.253,79.918 66.215,82.908 66.215,82.908C66.215,83.522 66.707,84.02 67.312,84.02C67.917,84.02 68.409,83.522 68.409,82.908L68.409,75.472C68.409,74.82 67.728,74.667 67.577,74.628C66.291,74.628 63.718,74.628 60.918,74.628C54.789,74.628 53.389,74.897 52.368,74.207C50.098,72.712 46.428,62.63 46.314,56.957C46.201,48.945 50.892,42.007 57.475,38.595C60.237,37.177 63.34,36.41 66.631,36.41C77.111,36.333 85.7,44.307 86.835,54.58C86.835,54.58 86.835,54.58 86.835,54.619C87.062,57.11 73.555,57.647 70.869,56.918C70.452,56.803 70.339,56.382 70.339,56.19C70.339,54.312 70.339,48.984 70.339,48.984C70.339,48.37 69.847,47.872 69.242,47.872C68.636,47.872 68.144,48.37 68.144,48.984L68.182,58.758C68.182,59.372 68.712,59.525 68.863,59.563C70.377,59.563 73.933,59.563 77.263,59.563C81.727,59.563 83.619,60.1 84.867,61.058C85.7,61.71 86.002,62.937 85.737,64.508C83.165,78.768 67.274,96.363 66.669,97.092ZM109.762,63.933C113.773,65.658 116.27,67.613 116.27,71.83C116.27,76.162 113.016,78.96 108.022,78.96C103.974,78.96 100.72,77.082 99.093,73.862L98.828,73.325L103.595,70.527L103.898,71.063C104.957,72.827 106.168,73.593 107.909,73.593C109.422,73.593 110.406,72.903 110.406,71.907C110.406,70.795 109.687,70.373 107.417,69.377L106.282,68.878C103.217,67.537 100.379,65.735 100.379,61.25C100.379,57.264 103.406,54.465 107.757,54.465C111.049,54.465 113.281,55.768 114.832,58.528L115.135,59.027L110.519,62.055L110.216,61.48C109.46,60.062 108.703,59.793 107.795,59.793C106.811,59.793 106.206,60.33 106.206,61.173C106.206,62.132 106.66,62.553 108.665,63.435L109.762,63.933ZM143.548,64.738L146.915,55.232L152.704,55.232L144.116,79.382L142.83,79.382L137.646,68.035C137.42,67.498 137.154,66.885 136.928,66.272C136.7,66.847 136.436,67.498 136.208,68.035L130.836,79.343L129.55,79.343L120.848,55.194L127.015,55.194L130.42,64.7C130.647,65.313 130.874,66.042 131.063,66.732C131.29,66.042 131.555,65.275 131.857,64.623L136.323,54.963L137.57,54.963L142.111,64.623C142.414,65.237 142.678,66.003 142.906,66.732C143.133,66.08 143.359,65.352 143.548,64.738ZM159.477,78.653L159.477,54.734L165.303,54.734L165.303,78.653L159.477,78.653ZM184.448,70.603L184.448,65.237L195.268,65.237L195.268,75.97L195.042,76.162C193.793,77.197 190.502,78.922 186.075,78.922C178.545,78.922 173.324,73.862 173.324,66.655C173.324,59.563 178.395,54.427 185.355,54.427C189.177,54.427 192.014,55.539 193.945,57.762L194.322,58.183L190.35,62.17L189.934,61.71C188.837,60.56 187.664,59.832 185.355,59.832C181.799,59.832 179.302,62.63 179.302,66.617C179.302,70.795 181.951,73.478 186.075,73.478C187.436,73.478 188.874,73.248 189.82,72.865L189.82,70.565L184.448,70.565L184.448,70.603ZM214.034,70.603L214.034,65.237L224.855,65.237L224.855,75.97L224.628,76.162C223.379,77.197 220.088,78.922 215.66,78.922C208.132,78.922 202.911,73.862 202.911,66.655C202.911,59.563 207.98,54.427 214.942,54.427C218.763,54.427 221.601,55.539 223.531,57.762L223.908,58.183L219.936,62.17L219.52,61.71C218.424,60.56 217.251,59.832 214.942,59.832C211.386,59.832 208.889,62.63 208.889,66.617C208.889,70.795 211.538,73.478 215.699,73.478C217.061,73.478 218.498,73.248 219.445,72.865L219.445,70.565L214.034,70.565L214.034,70.603ZM246.269,54.734L252.36,54.734L243.961,70.642L243.961,78.653L238.097,78.653L238.097,70.987L229.205,54.734L235.713,54.734L239.837,62.362C240.291,63.205 240.746,64.278 241.086,65.198C241.426,64.317 241.88,63.243 242.296,62.4L246.269,54.734Z" fill="#FC8019"/>
</svg>
